<svg xmlns="http://www.w3.org/2000/svg" width="81" height="86" viewBox="0 0 81 86" fill="none"><path d="M52.0056 3.12802C61.4661 -3.49248 74.5459 2.61106 75.5491 14.1144L80.3697 69.3882C81.373 80.8915 69.5473 89.1672 59.0835 84.2843L8.80466 60.8222C-1.65914 55.9394 -2.91321 41.5602 6.54736 34.9397L52.0056 3.12802Z" fill="#FFF0E3"></path><path d="M29.9835 38.1438C25.68 38.6559 21.9514 40.4258 18.8518 43.4355C16.3182 45.8973 14.6561 48.6824 13.7307 52.0156C13.0569 54.4504 12.8682 56.8223 13.1378 59.266C13.8655 65.8156 17.8276 71.4488 23.7303 74.3328C26.4706 75.6805 29.0491 76.2734 32.1936 76.2824C35.5897 76.2914 38.887 75.4109 41.726 73.7398C42.1303 73.5062 42.4897 73.3086 42.5257 73.3086C42.5706 73.3086 44.8436 75.5457 47.5928 78.2859C53.1092 83.7844 53.0014 83.6945 54.385 83.9191C56.5323 84.2695 58.5628 82.7602 58.9311 80.55C59.0569 79.7863 58.9311 78.9777 58.5538 78.1781C58.2932 77.6211 57.8889 77.1898 53.271 72.5629C48.9944 68.2773 48.2846 67.5316 48.3655 67.3969C51.4292 62.4734 52.1479 56.5797 50.3421 51.1621C49.9108 49.8594 49.3268 48.5656 48.6979 47.4965L48.2846 46.7867L49.0393 46.032L49.794 45.2773L50.2882 45.466C51.2854 45.8523 52.6061 45.5828 53.3968 44.8461C53.7382 44.5406 54.1245 43.9477 54.2053 43.6242L54.2593 43.3906H56.6311H59.003V42.627V41.8633H56.6671H54.3311L54.1155 41.3871C53.0553 39.0332 49.794 38.9434 48.6171 41.2523C48.2757 41.9262 48.2128 42.9594 48.4823 43.6602L48.671 44.1543L48.0151 44.8102L47.3592 45.466L46.5776 44.5676C42.5077 39.8777 36.1378 37.416 29.9835 38.1438ZM34.2151 39.6262C40.7467 40.4527 46.1733 44.6484 48.5901 50.7219C49.9378 54.127 50.1534 58.2598 49.1561 61.8176C48.3116 64.8723 46.7483 67.5137 44.4842 69.7328C42.0225 72.1496 39.0936 73.7039 35.6257 74.4406C34.26 74.7281 31.6456 74.8359 30.1632 74.6652C23.0745 73.8566 17.1448 68.8344 15.1952 61.9883C14.4315 59.3289 14.3237 56.1664 14.8987 53.498C16.3182 46.9664 21.1159 41.8723 27.5128 40.1293C28.2764 39.9137 29.651 39.6531 30.3428 39.5902C31.0975 39.5094 33.5233 39.5363 34.2151 39.6262ZM51.7706 41.1535C52.4624 41.3512 52.9925 42.1867 52.8487 42.8785C52.7589 43.3008 52.4444 43.7141 52.0581 43.9387C51.7796 44.0914 51.6089 44.1184 51.2225 44.0914C50.4139 44.0195 49.9288 43.5344 49.8569 42.7348C49.812 42.1957 49.9557 41.8363 50.36 41.459C50.7464 41.0906 51.1956 40.9918 51.7706 41.1535ZM48.4913 69.9395L49.5245 70.9727L47.7456 72.7426L45.9757 74.5215L44.9425 73.4883C43.9632 72.518 43.7925 72.2844 43.9991 72.2125C44.2327 72.1316 45.805 70.6492 46.5237 69.8316C46.9729 69.3285 47.3682 68.9062 47.4042 68.9062C47.4311 68.9062 47.9253 69.3734 48.4913 69.9395ZM57.2151 78.8789C57.5116 79.4359 57.5206 80.55 57.2331 81.0801C56.5862 82.293 55.0678 82.8051 53.8729 82.2031C53.6124 82.0684 52.3995 80.9273 50.2612 78.807L47.0538 75.6086L48.8237 73.8297L50.6026 72.0508L53.801 75.2582C55.8944 77.3516 57.0803 78.6184 57.2151 78.8789Z" fill="#FF9232"></path><path d="M30.8372 41.1446C24.0899 41.7016 18.4208 46.4543 16.6419 53.0489C15.9501 55.6184 15.9501 58.6731 16.6419 61.2696C18.0165 66.4535 21.7989 70.5414 26.8841 72.3563C29.6782 73.3535 33.1552 73.5063 36.12 72.7606C40.747 71.6016 44.772 68.2684 46.7395 63.9739C47.7997 61.6559 48.231 59.6883 48.231 57.1817C48.231 51.5485 45.4009 46.4633 40.6032 43.4895C37.7372 41.7106 34.2333 40.866 30.8372 41.1446ZM34.5657 42.8246C37.2161 43.2559 39.8036 44.4867 41.7532 46.2387C42.6876 47.0742 43.9993 48.5477 43.9993 48.7453C43.9993 48.7903 43.586 49.2395 43.0829 49.7426L42.1575 50.659L41.6634 50.4883C40.3427 50.0301 38.8782 50.4883 38.1235 51.5934C37.5216 52.4739 37.3958 53.5969 37.8001 54.4953L37.9618 54.8637L35.4731 57.3524L32.9755 59.841L32.4005 59.6524C31.7087 59.4098 30.8731 59.4367 30.2442 59.7153L29.831 59.9039L28.106 58.1789L26.381 56.4539L26.5517 56.0496C27.1896 54.5582 26.5247 52.8153 25.0423 52.1145C24.62 51.9168 24.4224 51.8809 23.7396 51.8809C23.0388 51.8809 22.8681 51.9168 22.4188 52.1324C21.8079 52.4289 21.17 53.1117 20.9454 53.6778L20.7927 54.0821H19.3731H17.9536L18.1692 53.2914C18.5825 51.7551 19.3103 50.2098 20.2536 48.8621C23.461 44.2621 29.0224 41.9082 34.5657 42.8246ZM45.329 51.0004C46.3083 53.0938 46.7036 54.8727 46.7036 57.1727C46.6946 62.168 44.2329 66.6961 40.0552 69.4004C38.6087 70.3348 36.8657 71.0535 35.1228 71.4309C33.8649 71.7004 31.3493 71.7633 30.0735 71.5656C28.5192 71.3141 27.5399 71.0266 26.1653 70.4157C23.1017 69.041 20.4063 66.3906 19.0407 63.4258C17.9716 61.0809 17.5942 59.1492 17.6571 56.3012L17.6751 55.6094H19.2294H20.7747L20.9903 56.1125C21.2688 56.7504 21.8079 57.3074 22.4817 57.6399C22.9489 57.8645 23.1196 57.9004 23.7396 57.9004C24.2696 57.8914 24.5661 57.8465 24.8716 57.7028L25.2849 57.5141L27.0099 59.2391L28.7349 60.9731L28.5462 61.5481C28.0431 63.0305 28.7259 64.6297 30.1544 65.3035C30.5767 65.5012 30.7833 65.5371 31.4212 65.5371C32.0591 65.5371 32.2657 65.5012 32.679 65.3035C33.3079 65.0071 33.9009 64.4141 34.1974 63.7852C34.4938 63.1473 34.5208 62.0871 34.2603 61.4133L34.0896 60.9821L36.5872 58.4844L39.0849 55.9867L39.4532 56.1485C40.3517 56.5528 41.4747 56.427 42.3552 55.825C43.4603 55.0614 43.9454 53.534 43.4603 52.2672L43.2806 51.791L44.0622 51.0094C44.4935 50.5692 44.8708 50.2188 44.9067 50.2188C44.9337 50.2188 45.1224 50.5692 45.329 51.0004ZM41.4567 52.0696C41.87 52.384 42.0497 52.6985 42.0946 53.2196C42.2384 54.9715 39.8216 55.5106 39.1927 53.8574C38.9231 53.1657 39.2017 52.411 39.8665 52.0157C40.2708 51.7731 41.0974 51.8 41.4567 52.0696ZM24.3505 53.4891C24.5122 53.552 24.7548 53.7407 24.8896 53.8934C25.5813 54.7199 25.2849 55.9059 24.2786 56.2922C23.2724 56.6696 22.2571 55.9508 22.2571 54.8457C22.2571 53.7586 23.3263 53.0578 24.3505 53.4891ZM31.9872 61.1258C32.6251 61.3864 33.0474 62.159 32.9126 62.8149C32.7778 63.4887 32.095 64.0547 31.4212 64.0547C30.936 64.0547 30.37 63.7313 30.1185 63.3C29.3907 62.0602 30.6755 60.5688 31.9872 61.1258Z" fill="#FF9232"></path></svg>