<svg xmlns="http://www.w3.org/2000/svg" width="81" height="86" viewBox="0 0 81 86" fill="none"><path d="M52.0056 3.12802C61.4661 -3.49248 74.5459 2.61106 75.5491 14.1144L80.3697 69.3882C81.373 80.8915 69.5473 89.1672 59.0835 84.2843L8.80466 60.8222C-1.65914 55.9394 -2.91321 41.5602 6.54736 34.9397L52.0056 3.12802Z" fill="#FFE2F0"></path><path fill-rule="evenodd" clip-rule="evenodd" d="M44.5747 39.5879C44.9068 38.9336 45.4341 38.4453 46.0787 38.2109C46.6451 37.9961 47.6509 38.084 48.188 38.3965C49.0962 38.9336 49.5552 39.7051 49.5552 40.7109C49.5552 41.4629 49.3697 41.9219 48.8716 42.4785C48.4126 42.9863 47.8658 43.2598 47.1919 43.3184L46.6451 43.3672L46.0396 44.8809L45.4341 46.3945L48.5787 49.4805C49.7692 50.6575 51.057 51.918 51.9475 52.7896C52.3499 53.1835 52.6712 53.498 52.8658 53.6895L54.0083 54.8027L55.5025 54.1582L56.9966 53.5137L57.065 52.957C57.2408 51.6387 58.3247 50.6719 59.6333 50.6816C60.688 50.6816 61.479 51.1406 61.9673 52.0391C62.563 53.1328 62.3482 54.373 61.4204 55.2129C60.3658 56.1602 58.9693 56.1602 57.856 55.2227L57.5728 54.9785L56.1079 55.6035L54.6529 56.2188V62.3027V68.3867L55.4829 68.7383C55.5374 68.7614 55.594 68.7856 55.652 68.8103C56.0835 68.9941 56.5931 69.2112 56.8599 69.3145L57.4068 69.5391L57.9048 69.1973C59.3306 68.2207 61.0787 68.6992 61.8501 70.291C62.69 72.0195 61.4497 74.0117 59.5357 74.0117C58.149 74.0117 57.0845 73.0352 56.8794 71.5703L56.8013 71.0625L55.4048 70.4766L53.9986 69.8809L49.7115 74.168L45.4341 78.4551L46.1372 80.1348C46.8208 81.7559 46.8501 81.8047 47.1529 81.8535C49.0474 82.166 49.4478 84.666 47.7193 85.4473C46.0494 86.209 44.4576 84.4512 45.3072 82.8105L45.5025 82.4492L44.7994 80.7891L44.0962 79.1387H38.0025H31.9087L31.1861 80.8672L30.4634 82.5957L30.7173 83.1035C30.854 83.3867 30.9712 83.7773 30.9712 83.9629C30.9615 84.6562 30.3951 85.4863 29.7701 85.7207C29.4185 85.8574 28.7154 85.8574 28.3638 85.7207C27.7388 85.4863 27.1626 84.6562 27.1626 83.9727C27.1626 83.1816 27.8169 82.3613 28.5982 82.166L29.0669 82.0488L29.8189 80.252L30.5708 78.4551L26.2935 74.168L22.0064 69.8809L20.5025 70.5254L19.0083 71.1699L18.94 71.7266C18.6079 74.2559 15.2681 74.8711 14.0181 72.625C13.774 72.1758 13.7349 72.0098 13.7349 71.375C13.7447 70.5059 13.94 70.0566 14.5845 69.4512C15.6001 68.5234 17.0357 68.5234 18.149 69.4609L18.4419 69.7051L19.897 69.0801L21.3521 68.4551L21.3814 62.4199L21.4009 56.3848L19.9556 55.7695C19.1646 55.4375 18.4712 55.1641 18.4322 55.1641C18.3833 55.1641 18.2173 55.2812 18.0415 55.4277C16.8794 56.4043 15.1607 56.2188 14.2525 55.0176C13.4126 53.9043 13.5103 52.5859 14.5161 51.5801C15.0337 51.0723 15.6978 50.7695 16.3228 50.7695C17.5923 50.7695 18.9595 52.0586 18.9595 53.2598V53.6504L20.5025 54.3145L22.0357 54.9688L26.274 50.7305L30.5122 46.4922L29.9068 44.9785L29.3013 43.4746L28.7837 43.416C27.3775 43.2695 26.3814 42.1953 26.3814 40.8184C26.3814 39.334 27.4947 38.1816 28.9302 38.1719C29.5943 38.1719 30.0142 38.3086 30.5318 38.6797C31.7232 39.5391 31.9771 41.1895 31.0982 42.3418L30.7564 42.791L31.3423 44.2656L31.9283 45.7402H38.0025H44.0767L44.6724 44.2461L45.2681 42.7617L45.0044 42.4883C44.3013 41.7559 44.1158 40.4863 44.5747 39.5879ZM30.0435 41.2969C30.2779 40.8379 30.229 40.457 29.8775 40.0762C29.6626 39.8418 29.4478 39.7148 29.2134 39.6855C28.774 39.627 28.5298 39.7344 28.1978 40.1348C27.9634 40.4082 27.9341 40.5156 27.9732 40.8965C28.0415 41.502 28.4615 41.8828 29.0474 41.8828C29.5259 41.8828 29.8384 41.6973 30.0435 41.2969ZM48.0318 40.8867C48.0806 40.4863 48.0513 40.4082 47.7583 40.0859C47.1822 39.4609 46.3521 39.5684 45.9615 40.3105C45.7759 40.6816 45.7759 40.9355 45.9615 41.2969C46.4693 42.2832 47.9048 42 48.0318 40.8867ZM53.0415 56.1016L48.6763 51.7266L44.3013 47.3516H38.0025H31.7036L27.3286 51.7266L22.9634 56.0918V62.3418V68.5918L27.3384 72.9668L31.7036 77.332H38.0025H44.3013L48.6763 72.957L53.0415 68.5918V62.3418V56.1016ZM17.104 54.207C17.69 53.6895 17.6411 52.8789 17.0161 52.459C16.8306 52.332 16.5669 52.2344 16.4302 52.2344C15.8247 52.2441 15.2974 52.7812 15.2974 53.416C15.2974 53.748 15.356 53.8652 15.6685 54.1484C16.1372 54.5879 16.6646 54.6074 17.104 54.207ZM60.7076 53.2012C60.6685 53.0547 60.4927 52.791 60.3072 52.625C59.4576 51.8828 58.1978 52.7129 58.5494 53.7969C58.6763 54.1777 59.1939 54.5781 59.5747 54.5781C60.2095 54.5781 60.8443 53.8164 60.7076 53.2012ZM17.397 71.7461C17.6119 71.248 17.524 70.8574 17.104 70.4668C16.6841 70.0859 16.1568 70.1055 15.6978 70.4961C15.2876 70.8574 15.19 71.2383 15.3755 71.6777C15.7857 72.6543 16.9673 72.6934 17.397 71.7461ZM60.1119 72.1465C60.7173 71.6191 60.6685 70.7793 60.0337 70.3887C59.0474 69.7832 57.8951 70.877 58.4712 71.8633C58.8521 72.498 59.5747 72.625 60.1119 72.1465ZM30.0029 84C30.0029 84.5523 29.5552 85 29.0029 85C28.4506 85 28.0029 84.5523 28.0029 84C28.0029 83.4477 28.4506 83 29.0029 83C29.5552 83 30.0029 83.4477 30.0029 84ZM48.0029 84C48.0029 84.5523 47.5552 85 47.0029 85C46.4506 85 46.0029 84.5523 46.0029 84C46.0029 83.4477 46.4506 83 47.0029 83C47.5552 83 48.0029 83.4477 48.0029 84Z" fill="#FF5BAA"></path><path d="M35.8154 50.5352C31.5575 51.3067 27.915 54.4805 26.5673 58.6016C25.0048 63.3867 26.6161 68.7871 30.5224 71.8047C31.4306 72.5078 32.2411 73.0059 33.0517 73.3672C38.1103 75.5938 44.0966 74.1289 47.4267 69.8613C50.3368 66.1211 50.8544 61.082 48.745 56.9414C47.0165 53.5625 43.8036 51.1699 40.1122 50.5254C39.038 50.3399 36.87 50.3496 35.8154 50.5352ZM40.5615 52.1758C44.4775 53.1817 47.4072 56.2383 48.3251 60.2715C48.4325 60.7598 48.4814 61.4336 48.4814 62.4395C48.4814 63.6895 48.4423 64.041 48.2275 64.8418C47.7099 66.8145 46.7822 68.4551 45.4345 69.8028C41.3134 73.9238 34.6923 73.9238 30.5712 69.8028C29.2236 68.4551 28.2958 66.8145 27.7783 64.8418C27.5732 64.0606 27.5243 63.6699 27.5243 62.4883C27.5146 60.9942 27.5927 60.418 28.0126 59.1192C29.204 55.3789 32.5341 52.5664 36.499 51.9414C37.5048 51.7852 39.497 51.9024 40.5615 52.1758Z" fill="#FF5BAA"></path><path d="M37.466 55.2617C37.3488 55.3984 37.2707 55.6621 37.2414 56.0332L37.2023 56.6094L36.7336 56.8242C36.0988 57.1172 35.4347 57.8203 35.1125 58.5137C34.6047 59.627 34.839 61.0918 35.6691 62.0391C36.1574 62.5859 37.0558 63.0449 37.8566 63.1328C38.55 63.2109 38.8722 63.3574 39.2043 63.748C39.9758 64.666 39.6926 66.1211 38.6574 66.5996C38.1496 66.8242 37.925 66.834 37.4074 66.6289C36.9289 66.4336 36.4699 65.8477 36.3918 65.3301C36.2843 64.666 36.2453 64.5488 36.089 64.4023C36.0109 64.3145 35.7765 64.2461 35.5715 64.2461C35.0441 64.2461 34.8195 64.5195 34.8488 65.1445C34.8976 66.3262 35.5226 67.3125 36.5383 67.8398L37.173 68.1719L37.2316 68.7676C37.3 69.4316 37.5246 69.7148 38.0031 69.7148C38.4914 69.7148 38.716 69.4316 38.7648 68.7578L38.8039 68.1621L39.3215 67.9082C40.6105 67.2832 41.3429 65.8477 41.1183 64.4023C40.8742 62.8887 39.7316 61.8242 38.1398 61.6191C37.3781 61.5215 37.1828 61.4434 36.8605 61.1016C35.6789 59.8418 36.7043 57.7324 38.3449 58.0352C39.009 58.1621 39.6535 58.9922 39.6633 59.7148C39.6633 60.1641 39.9953 60.5352 40.3957 60.5352C40.5715 60.5352 40.8156 60.457 40.9426 60.3496C41.1281 60.2031 41.1574 60.0859 41.1476 59.6367C41.1183 58.4258 40.2785 57.1758 39.2433 56.7754L38.7843 56.5996V56.0918C38.7843 55.4082 38.5304 55.0664 38.0129 55.0664C37.7687 55.0664 37.5832 55.1348 37.466 55.2617Z" fill="#FF5BAA"></path></svg>