<svg xmlns="http://www.w3.org/2000/svg" width="81" height="86" viewBox="0 0 81 86" fill="none"><path d="M52.0056 3.12796C61.4661 -3.49254 74.5459 2.611 75.5491 14.1143L80.3697 69.3881C81.373 80.8915 69.5473 89.1671 59.0835 84.2843L8.80466 60.8221C-1.65914 55.9393 -2.91321 41.5601 6.54736 34.9396L52.0056 3.12796Z" fill="#EEE6FC"></path><path d="M24.2735 38.1406C23.9735 38.3 23.936 38.3844 23.711 39.3781C23.3172 41.15 22.5672 42.5187 21.2828 43.8125C19.9516 45.1625 18.5453 45.9406 16.7453 46.3344C16.3235 46.4281 15.8922 46.55 15.7797 46.6062C15.3766 46.8219 15.3485 47.1031 15.4047 50.1687C15.4797 54.1531 15.7891 56.6469 16.6422 60.0781C19.0797 69.9406 24.8641 78.5562 32.7578 84.1062C34.2297 85.1375 35.7016 86 35.9922 86C36.5735 86 39.7891 83.8438 42.0485 81.9406C43.0891 81.0687 45.3203 78.8375 46.3328 77.6562C51.6766 71.4687 55.1828 63.6312 56.2422 55.5219C56.5141 53.4688 56.6266 51.6687 56.6266 49.2687C56.6266 46.5781 56.636 46.6062 55.2672 46.3344C51.8547 45.6687 49.0703 42.8937 48.2828 39.3687C48.0672 38.375 48.0297 38.3 47.711 38.1406C47.3172 37.9344 24.6485 37.9344 24.2735 38.1406ZM46.6328 40.5031C46.8391 41.3281 47.5797 42.875 48.1985 43.7656C48.8172 44.6656 49.961 45.8094 50.861 46.4281C51.7047 47.0187 53.2422 47.75 54.1235 47.9937L54.7516 48.1719V49.6906C54.7516 52.625 54.4141 55.8687 53.8141 58.6062C51.5735 68.8344 45.5172 77.7969 37.1547 83.2531L36.0578 83.9656L35.5797 83.7031C34.8953 83.3375 33.0672 82.0437 31.8953 81.1062C23.9266 74.7031 18.6578 64.8875 17.4766 54.2562C17.4016 53.5437 17.3078 51.875 17.2797 50.5531L17.2235 48.1531L17.7297 48.0312C19.9422 47.4969 22.3422 45.8375 23.7485 43.8594C24.3485 43.0062 25.0235 41.6281 25.3141 40.6531L25.5485 39.875H36.011H46.4828L46.6328 40.5031Z" fill="#8D51F9"></path><path d="M28.3319 43.7375C28.2194 43.7938 27.9288 44.1875 27.6944 44.6C26.4007 46.9063 24.3944 48.9313 22.1163 50.2438C21.0663 50.8531 21.0382 50.8906 21.0757 51.9125C21.085 52.3813 21.16 53.3375 21.2444 54.0313C22.135 61.8125 25.6413 69.5375 30.7788 75.0125C32.4569 76.7938 35.2132 79.1656 35.7757 79.3063C36.1507 79.4 36.4038 79.2875 37.3413 78.5656C44.3444 73.2313 49.435 64.1563 50.6725 54.7813C50.8882 53.1125 51.01 51.3406 50.9163 51.1063C50.8038 50.8063 50.6163 50.6563 49.66 50.0938C47.4944 48.8188 45.4882 46.7563 44.26 44.525C44.0257 44.1031 43.7913 43.8031 43.6413 43.7375C43.3038 43.5875 28.6507 43.5875 28.3319 43.7375ZM35.0632 51.2656C35.0632 55.5313 35.0913 57.0875 35.1757 57.2656C35.2975 57.5375 35.6913 57.7813 36.0007 57.7813C36.31 57.7813 36.7038 57.5375 36.8257 57.2656C36.91 57.0875 36.9382 55.5313 36.9382 51.2656V45.5H39.7788H42.6288L43.1913 46.3625C44.5694 48.5094 46.5382 50.4406 48.535 51.6125L49.0507 51.9219L48.9944 52.8688C48.91 54.1719 48.5444 56.4688 48.1507 58.0906C46.81 63.6594 44.0632 68.9281 40.2663 73.2406C39.3194 74.3188 37.735 75.875 37.2007 76.2688L36.9382 76.4469V70.7656C36.9382 64.5969 36.9475 64.6906 36.4225 64.4563C36.1132 64.3156 35.8882 64.3156 35.5788 64.4563C35.0538 64.6906 35.0632 64.5969 35.0632 70.7656V76.4469L34.7632 76.2406C34.1819 75.8375 31.5382 73.1094 30.7132 72.0781C26.5132 66.8094 23.785 60.2 23.0725 53.5438C22.8944 51.95 22.8944 51.9688 23.4757 51.6125C25.4913 50.4031 27.4413 48.5 28.81 46.3625L29.3725 45.5H32.2225H35.0632V51.2656Z" fill="#8D51F9"></path><path d="M35.5423 60.2563C34.7267 60.7063 35.0736 62 36.0017 62C36.4798 62 36.9392 61.5406 36.9392 61.0719C36.9392 60.3688 36.1611 59.9094 35.5423 60.2563Z" fill="#8D51F9"></path></svg>