<svg xmlns="http://www.w3.org/2000/svg" width="81" height="86" viewBox="0 0 81 86" fill="none"><path d="M52.0056 3.12802C61.4661 -3.49248 74.5459 2.61106 75.5491 14.1144L80.3697 69.3882C81.373 80.8915 69.5473 89.1672 59.0835 84.2843L8.80466 60.8222C-1.65914 55.9394 -2.91321 41.5602 6.54736 34.9397L52.0056 3.12802Z" fill="#EDFFFC"></path><path d="M43.9585 43.4041C37.9692 49.3934 37.9351 49.4389 38.4579 49.9617C38.6852 50.189 38.8102 50.2003 41.1968 50.2003H43.6971V54.0076V57.8149H38.5829H33.4573L33.1845 58.099L32.9004 58.3717V61.2812V64.1792H27.7862H22.6605L22.3878 64.4634L22.1037 64.7361V67.5319V70.3163H16.9326C11.9093 70.3163 11.7502 70.3277 11.5342 70.5436C11.3069 70.7709 11.3069 70.9187 11.3069 77.5899V84.4089H9.21578C7.28373 84.4089 7.11326 84.4203 6.82914 84.6476C6.45409 84.9431 6.44273 85.4204 6.79504 85.75L7.05644 86H33.9573C60.7105 86 60.8582 86 61.0855 85.7727C61.381 85.4772 61.381 84.9317 61.0855 84.6362C60.8696 84.4203 60.7105 84.4089 58.4716 84.4089H56.0849V81.4654C56.0849 78.7719 56.0622 78.4991 55.8804 78.2605C55.619 77.9536 55.028 77.9195 54.7439 78.2036C54.5734 78.3741 54.5507 78.7491 54.5166 81.3972L54.4825 84.4089H49.891H45.2882V66.8159C45.2882 51.8141 45.2655 49.1888 45.1291 48.9956C44.9814 48.8024 44.7768 48.7797 42.9698 48.7229L40.9695 48.666L45.4246 44.1996L49.891 39.7445L54.3802 44.2337L58.8694 48.7229H56.9373C55.869 48.7229 54.9484 48.7683 54.8803 48.8138C54.5279 49.0525 54.4938 49.4275 54.4938 53.5871C54.4938 57.6557 54.5052 57.7921 54.7325 58.0876C54.9939 58.4172 55.4599 58.4854 55.8122 58.224C56.0168 58.0649 56.0281 57.849 56.0849 54.1553L56.1418 50.2571L58.6989 50.2003L61.2446 50.1435L61.4151 49.848C61.506 49.6889 61.5401 49.4389 61.506 49.2798C61.4606 49.1207 59.0512 46.6317 55.8349 43.4041C50.9593 38.5512 50.1865 37.8125 49.891 37.8125C49.5955 37.8125 48.8227 38.5512 43.9585 43.4041ZM43.6971 71.9074V84.4089H39.0943H34.4915V71.9074V59.406H39.0943H43.6971V71.9074ZM32.9004 75.0896V84.4089H28.2976H23.6948V75.0896V65.7703H28.2976H32.9004V75.0896ZM22.1037 78.1582V84.4089H17.5008H12.898V78.1582V71.9074H17.5008H22.1037V78.1582Z" fill="#1DE5C5"></path><path d="M54.7328 62.6563C54.5169 62.9291 54.4941 63.1109 54.4941 64.3156C54.4941 65.5998 54.5055 65.6794 54.7783 65.9408C55.1192 66.2931 55.517 66.3045 55.8352 65.9635C56.0625 65.7248 56.0852 65.5771 56.0852 64.2588C56.0852 62.9632 56.0625 62.7927 55.8579 62.5881C55.5284 62.2585 55.0169 62.2926 54.7328 62.6563Z" fill="#1DE5C5"></path><path d="M54.8805 70.2936C54.5851 70.4868 54.4941 70.93 54.4941 72.1915C54.4941 73.4417 54.5055 73.5212 54.7783 73.7826C55.1192 74.1236 55.392 74.135 55.7897 73.8281C56.0852 73.6008 56.0852 73.5781 56.0852 72.1234C56.0852 70.805 56.0625 70.6345 55.8579 70.43C55.6306 70.2027 55.1192 70.1345 54.8805 70.2936Z" fill="#1DE5C5"></path></svg>