<svg xmlns="http://www.w3.org/2000/svg" width="81" height="86" viewBox="0 0 81 86" fill="none"><path d="M52.0056 3.12802C61.4661 -3.49248 74.5459 2.61106 75.5491 14.1144L80.3697 69.3882C81.373 80.8915 69.5473 89.1672 59.0835 84.2843L8.80466 60.8222C-1.65914 55.9394 -2.91321 41.5602 6.54736 34.9397L52.0056 3.12802Z" fill="#EBF8FF"></path><path d="M35.1705 37.5449C34.808 37.6328 34.1381 37.7646 33.6878 37.8195C30.9861 38.1929 27.8781 39.5657 25.2862 41.5316C24.4186 42.1905 22.5077 44.0575 21.7169 45.013C19.191 48.0881 17.5656 51.9539 17.1043 55.9955C16.7638 59.0157 17.313 63.9358 18.1586 65.4953C18.7517 66.5936 19.9597 67.4392 21.2776 67.6918C21.5961 67.7467 22.5406 67.8016 23.3753 67.8016C24.2099 67.8016 24.9128 67.8456 24.9568 67.9005C24.9897 67.9664 25.0666 68.2739 25.1325 68.6034C25.2203 69.0756 25.1984 69.3062 25.0666 69.6796C24.8469 70.3386 24.8579 70.723 25.1215 70.9866C25.3411 71.2062 25.8134 71.2721 26.1648 71.1293C26.5382 70.9975 26.8787 70.0201 26.8787 69.1086C26.8787 67.9993 26.5931 67.0988 25.8354 65.8468C24.8359 64.1884 24.4076 63.0462 24.0782 61.1682C23.8805 60.037 23.8585 57.5989 24.0342 56.4567C24.6273 52.514 26.5273 48.9777 29.163 46.924C30.0856 46.1991 30.1734 46.0893 30.1734 45.672C30.1734 45.2327 29.7781 44.8483 29.3278 44.8483C28.6249 44.8483 26.2527 47.0558 25.1215 48.769C21.9256 53.6013 21.2557 60.0919 23.4302 65.1C23.6389 65.5832 23.8036 66.0005 23.8036 66.0225C23.8036 66.0444 23.2435 66.0444 22.5736 66.0225C21.1898 65.9676 20.7285 65.8028 20.1025 65.1439C19.6412 64.6607 19.4765 64.2433 19.2019 62.8156C18.1257 57.2365 19.1031 51.8771 22.0135 47.4841C23.1666 45.7379 25.3302 43.5743 27.0983 42.3992C28.4821 41.4876 30.1405 40.664 31.6341 40.1368C32.974 39.6645 32.952 39.6536 32.8751 40.4773C32.8422 40.8616 32.7873 41.872 32.7433 42.7287C32.6884 44.2003 32.6884 44.2882 32.9081 44.5078C33.0399 44.6396 33.2815 44.7384 33.4572 44.7384C34.3468 44.7384 34.4676 44.42 34.5664 41.9599C34.6433 39.7414 34.7312 39.5218 35.5109 39.2802C36.0491 39.1264 37.4548 39.1044 37.982 39.2472C38.597 39.4229 38.6409 39.6316 38.6189 42.2125C38.608 43.6841 38.6409 44.5627 38.7178 44.7055C38.8606 44.9691 38.9704 45.024 40.0357 45.2986C42.2651 45.8696 43.6929 47.4072 44.1541 49.7025C44.253 50.1638 44.4287 50.68 44.5495 50.8557C44.6813 51.0204 45.3292 51.6574 45.9992 52.2614C47.7893 53.8868 48.624 54.9302 48.624 55.5562C48.624 56.0065 46.131 58.6532 45.3622 59.0266C45.0766 59.1584 44.7801 59.2353 44.6264 59.1914C44.4946 59.1584 43.9894 58.807 43.5061 58.4006C42.5397 57.5989 41.3097 56.8302 40.3871 56.4677C39.9149 56.281 39.5525 56.2261 38.6848 56.2261C37.6854 56.2261 37.4658 56.27 36.2577 56.6764C35.5329 56.918 34.6433 57.1596 34.2809 57.1926C33.567 57.2804 32.3809 57.1267 31.678 56.8631C30.8434 56.5446 30.437 56.5446 30.1295 56.8631C29.5035 57.4781 29.9538 58.181 31.2277 58.5764C33.0948 59.1475 34.7092 59.1035 36.6311 58.4006C38.0149 57.8955 38.9045 57.8186 39.7501 58.1151C40.497 58.3787 41.5952 59.0816 42.6605 59.9821C43.6379 60.7948 44.242 61.0474 44.9998 60.9596C46.1639 60.8168 47.3939 59.9162 49.0962 57.9284C50.1725 56.6654 50.3812 56.292 50.3812 55.5781C50.3812 54.403 49.6893 53.3707 47.5257 51.306L45.9772 49.8343L45.8125 49.0216C45.3292 46.5725 43.4403 44.4859 41.0461 43.739L40.442 43.5523L40.4201 41.7622C40.3981 39.7963 40.2993 39.2252 39.871 38.4894C39.6623 38.127 39.4536 37.9513 38.9704 37.7316C38.4432 37.49 38.1797 37.4461 37.0924 37.4131C36.2577 37.3912 35.6098 37.4351 35.1705 37.5449Z" fill="#24ABF5"></path><path d="M37.5532 49.4939C37.2567 49.8124 37.2457 50.3396 37.5203 50.68C37.718 50.9326 37.8058 50.9436 38.9041 50.9436C40.0572 50.9436 40.0792 50.9436 40.3537 50.6251C40.5624 50.3725 40.6173 50.2297 40.5624 49.9662C40.4416 49.3621 40.167 49.2413 38.915 49.2413C37.8827 49.2413 37.7729 49.2633 37.5532 49.4939Z" fill="#24ABF5"></path><path d="M37.5972 60.6741C37.3775 60.8388 37.3116 60.9926 37.3116 61.3001C37.3116 61.6625 37.4214 61.8382 38.2781 62.7498C40.3647 65.0231 41.6607 66.8352 42.704 68.9549C43.341 70.2508 44.0549 72.2386 44.1866 73.0733L44.2525 73.5016L34.8845 73.5345C26.5708 73.5675 25.4615 73.5895 25.1211 73.7432C24.5061 74.0288 24.0118 74.512 23.7373 75.105C23.5066 75.5993 23.4737 75.8079 23.4737 77.2027V78.7512L22.8367 78.8061C21.6177 78.9269 20.4096 79.7726 19.8495 80.9258C19.5969 81.4309 19.5749 81.6176 19.542 83.3529L19.498 85.2309L19.8056 85.4725C20.1021 85.7031 20.135 85.7031 26.1205 85.7031C29.4262 85.7031 32.2157 85.6702 32.3146 85.6372C32.5123 85.5604 32.8088 85.0332 32.8088 84.7696C32.8088 84.6708 32.666 84.4401 32.4903 84.2644L32.1718 83.9459H26.7245H21.2772V83.0124C21.2772 82.4523 21.3431 81.9252 21.431 81.7165C21.6067 81.2882 22.1009 80.8159 22.5182 80.6622C22.7269 80.5743 26.7904 80.5414 35.4226 80.5414C49.5461 80.5414 48.4149 80.4755 49.1068 81.3431C49.4253 81.7385 49.4472 81.8373 49.4802 82.8587L49.5241 83.9349L43.956 83.9679L38.3879 84.0008L38.1792 84.2644C37.8937 84.6159 37.9156 85.1101 38.2451 85.4286L38.5087 85.7031H44.615H50.7212L50.9958 85.4286L51.2813 85.143L51.2374 83.3639C51.2044 81.7165 51.1825 81.5408 50.9189 80.9807C50.7651 80.6402 50.4796 80.1899 50.2929 79.9813C49.7877 79.4102 48.7444 78.883 47.9536 78.8171L47.3057 78.7512V77.3564C47.3057 75.6871 47.1519 75.0611 46.5589 74.3802C46.2074 73.9738 46.1086 73.7432 45.9438 72.9635C45.1311 69.0208 42.7809 64.8804 39.4093 61.4209C38.3769 60.3556 38.1353 60.2567 37.5972 60.6741ZM45.2849 75.6322C45.5375 75.9287 45.5485 76.0166 45.5485 77.3674V78.7842H35.3897H25.2309V77.3674C25.2309 76.1154 25.2529 75.9287 25.4505 75.6761C25.5714 75.5224 25.78 75.3686 25.9228 75.3467C26.0546 75.3137 30.4036 75.3027 35.5874 75.3137L45.0213 75.3247L45.2849 75.6322Z" fill="#24ABF5"></path><path d="M35.0393 84.1107C34.4792 84.3523 34.3694 85.0991 34.8526 85.4725C35.237 85.78 35.6104 85.7581 35.9399 85.4286C36.6208 84.7587 35.9289 83.7373 35.0393 84.1107Z" fill="#24ABF5"></path></svg>