<svg xmlns="http://www.w3.org/2000/svg" width="81" height="86" viewBox="0 0 81 86" fill="none"><path d="M52.0056 3.12802C61.4661 -3.49248 74.5459 2.61106 75.5491 14.1144L80.3697 69.3882C81.373 80.8915 69.5473 89.1672 59.0835 84.2843L8.80466 60.8222C-1.65914 55.9394 -2.91321 41.5602 6.54736 34.9397L52.0056 3.12802Z" fill="#E6F4FF"></path><path d="M36.6638 37.9605C35.8466 38.1672 35.5366 38.449 30.9245 43.0611C26.6599 47.3351 26.2935 47.7202 26.2935 48.0114C26.2935 48.2744 26.4063 48.4435 27.0732 49.1198L27.8434 49.9183L28.5949 49.8713C30.0978 49.7868 31.2344 50.1531 32.1738 51.0455C33.0661 51.8909 33.5264 52.9429 33.5264 54.1077C33.517 55.357 33.1319 56.3151 32.2583 57.1793C30.5018 58.9359 27.7871 58.8795 26.0587 57.029C25.2321 56.1461 24.8564 54.9625 24.9503 53.5347L25.0066 52.802L24.2082 52.0036C23.5225 51.3273 23.3722 51.2146 23.0998 51.2146C22.7992 51.2146 22.4423 51.5433 18.1401 55.8361C12.8704 61.1058 13.0113 60.9273 13.002 62.2987C13.002 63.6795 13.0301 63.7265 16.6278 67.3335L19.7276 70.4333L19.1828 70.6024C17.9522 70.9782 16.6748 71.8705 15.82 72.9414C13.8661 75.3836 13.7065 78.8498 15.4348 81.4517C17.7926 84.993 22.7053 85.7445 26.0399 83.0674C27.0356 82.2596 27.9562 80.9257 28.3225 79.7422L28.4916 79.1973L31.5914 82.2971C35.1984 85.8948 35.2454 85.923 36.6262 85.923C37.9976 85.9136 37.8192 86.0545 43.0888 80.7848C47.3816 76.4827 47.7104 76.1257 47.7104 75.8251C47.7104 75.5527 47.5976 75.4024 46.9213 74.7167L46.1229 73.9183L45.3902 73.9746C43.9248 74.0686 42.7695 73.6928 41.8301 72.8005C40.919 71.9363 40.4775 70.9124 40.4775 69.6631C40.4775 68.038 41.4074 66.5539 42.8728 65.8306C44.1597 65.2013 45.7472 65.267 46.9777 65.9903C47.5225 66.3003 48.2928 67.1363 48.5839 67.7093C48.9503 68.442 49.0536 68.9398 49.0348 70.0576L49.0254 71.1003L49.8145 71.8611C50.4814 72.5187 50.6505 72.6314 50.9135 72.6314C51.2047 72.6314 51.5898 72.265 55.8638 68.0005C61.1335 62.7402 60.9926 62.9187 61.002 61.5472C61.002 60.1664 60.9738 60.1195 57.3761 56.5124L54.2763 53.4126L54.8211 53.2435C56.0892 52.8396 57.3104 51.9942 58.1933 50.8952C60.1378 48.4717 60.2881 44.9868 58.5691 42.3942C56.2113 38.8623 51.355 38.1014 47.9922 40.7504C47.0059 41.5206 46.0477 42.9108 45.6814 44.1038L45.5123 44.6486L42.4125 41.5488C39.726 38.8717 39.2282 38.4114 38.7491 38.1954C38.1573 37.923 37.2086 37.8196 36.6638 37.9605ZM37.9131 39.7641C38.054 39.811 39.8857 41.5676 41.9804 43.6623C45.6626 47.3257 45.8035 47.4572 46.1511 47.4572C46.4141 47.4572 46.5738 47.3915 46.7616 47.1942C46.9965 46.9688 47.0247 46.8467 47.0904 46.1046C47.2689 43.7656 48.6685 41.9433 50.8477 41.2106C51.7589 40.9007 53.1021 40.8631 53.9663 41.1167C55.8638 41.6709 57.3104 43.1269 57.8176 44.9868C58.0149 45.7195 58.0055 47.1097 57.8082 47.7954C57.3385 49.4298 56.1832 50.7637 54.699 51.4024C54.1542 51.6373 53.0364 51.8721 52.4352 51.8721C51.8716 51.8721 51.4677 52.2478 51.4677 52.7739C51.4677 53.1214 51.6086 53.2717 55.3096 56.9915C58.71 60.4013 59.1609 60.8803 59.2266 61.1997C59.3769 62.0357 59.3863 62.0169 55.009 66.4036C52.7828 68.6392 50.9323 70.4709 50.8947 70.4709C50.8571 70.4709 50.829 70.0952 50.829 69.6443C50.8196 68.3762 50.4908 67.3054 49.7863 66.2627C48.0203 63.6607 44.4227 62.8435 41.6986 64.431C40.4775 65.1449 39.3879 66.4975 38.9652 67.8408C38.6834 68.7144 38.627 70.067 38.8243 70.9782C39.3221 73.2138 41.0787 75.0267 43.2955 75.5903C43.6243 75.6748 44.2724 75.75 44.7233 75.75C45.1742 75.75 45.5499 75.7782 45.5499 75.8157C45.5499 75.9472 37.4998 83.894 37.218 84.0349C36.8704 84.2134 36.4665 84.2228 36.0908 84.0819C35.9499 84.0349 34.1182 82.2784 32.0141 80.1836C28.3507 76.5296 28.2004 76.3887 27.8528 76.3887C27.3268 76.3887 26.9511 76.7926 26.9511 77.3562C26.9511 78.0513 26.6975 79.1692 26.3969 79.7985C25.0818 82.5414 21.719 83.6968 19.0137 82.3347C16.6278 81.123 15.4442 78.305 16.2896 75.7782C16.7593 74.3598 17.802 73.1668 19.1264 72.5281C19.7558 72.2275 20.8736 71.9739 21.5687 71.9739C22.1323 71.9739 22.5362 71.5981 22.5362 71.0721C22.5362 70.7339 22.3953 70.5742 18.6943 66.8639C15.2939 63.4541 14.843 62.9656 14.7773 62.6463C14.6458 61.876 14.6458 61.8666 19.0513 57.4705L23.1749 53.3468V54.1922C23.1843 55.8643 23.7385 57.2169 24.9315 58.4099C26.8759 60.3543 29.7033 60.7958 32.1362 59.5089C32.9722 59.0768 33.9961 58.0717 34.4939 57.2263C35.5178 55.4604 35.5836 53.2717 34.6536 51.4212C33.6203 49.3641 31.5914 48.1054 29.2806 48.1054H28.4164L32.5025 44.0099C34.7476 41.7649 36.7108 39.8674 36.8611 39.7922C37.1992 39.642 37.5562 39.6326 37.9131 39.7641Z" fill="#0E2BC6"></path></svg>